{
	"asset":{
		"generator":"Khronos glTF Blender I/O v3.5.30",
		"version":"2.0"
	},
	"extensionsUsed":[
		"KHR_materials_specular",
		"KHR_materials_ior"
	],
	"scene":0,
	"scenes":[
		{
			"name":"Scene",
			"nodes":[
				0,
				1,
				2,
				3,
				4,
				5,
				6,
				7,
				8,
				9,
				10,
				11,
				12
			]
		}
	],
	"nodes":[
		{
			"mesh":0,
			"name":"dount"
		},
		{
			"mesh":1,
			"name":"Icing"
		},
		{
			"mesh":2,
			"name":"Sphere",
			"translation":[
				-0.23499999940395355,
				0.0005000000237487257,
				0.15248000621795654
			]
		},
		{
			"mesh":3,
			"name":"Sphere.001",
			"translation":[
				0.030617251992225647,
				0.022768452763557434,
				0.025033101439476013
			]
		},
		{
			"mesh":4,
			"name":"Sphere.002",
			"scale":[
				1.7114356756210327,
				1.7114356756210327,
				1.7114356756210327
			],
			"translation":[
				0.043088335543870926,
				0.02126602828502655,
				-0.014851652085781097
			]
		},
		{
			"mesh":5,
			"name":"Sphere.003",
			"scale":[
				1.7114356756210327,
				1.7114356756210327,
				1.7114356756210327
			],
			"translation":[
				-0.021910781040787697,
				0.02696371078491211,
				0.002616085112094879
			]
		},
		{
			"mesh":6,
			"name":"Sphere.004",
			"translation":[
				0.0036777302157133818,
				0.02635614201426506,
				0.019871167838573456
			]
		},
		{
			"mesh":7,
			"name":"Sphere.005",
			"translation":[
				-0.027177922427654266,
				0.020240262150764465,
				-0.035550251603126526
			]
		},
		{
			"mesh":8,
			"name":"Sprinkle",
			"translation":[
				-0.22024142742156982,
				0.0005000000237487257,
				0.15150870382785797
			]
		},
		{
			"mesh":9,
			"name":"Sprinkle.001",
			"translation":[
				-0.2175920009613037,
				0.0005000000237487257,
				0.15248000621795654
			]
		},
		{
			"mesh":10,
			"name":"Sprinkle.002",
			"translation":[
				-0.22279000282287598,
				0.0005000000237487257,
				0.15248000621795654
			]
		},
		{
			"mesh":11,
			"name":"Sprinkle.003",
			"translation":[
				-0.2262749969959259,
				0.0005000000237487257,
				0.15248000621795654
			]
		},
		{
			"mesh":12,
			"name":"Sprinkle.004",
			"translation":[
				-0.2290000021457672,
				0.0005000000237487257,
				0.15248000621795654
			]
		}
	],
	"materials":[
		{
			"doubleSided":true,
			"extensions":{
				"KHR_materials_specular":{
					"specularColorFactor":[
						1.200007265258598,
						1.200007265258598,
						1.200007265258598
					]
				},
				"KHR_materials_ior":{
					"ior":1.4500000476837158
				}
			},
			"name":"\u6750\u8d28.001",
			"pbrMetallicRoughness":{
				"baseColorTexture":{
					"index":0
				},
				"metallicFactor":0,
				"roughnessFactor":0.65818852186203
			}
		},
		{
			"doubleSided":true,
			"name":"\u6750\u8d28",
			"pbrMetallicRoughness":{
				"baseColorFactor":[
					0.800000011920929,
					0.17440000176429749,
					0.6323391199111938,
					1
				],
				"metallicFactor":0,
				"roughnessFactor":0.23604059219360352
			}
		},
		{
			"doubleSided":true,
			"name":"Material",
			"pbrMetallicRoughness":{
				"baseColorFactor":[
					0.2113330215215683,
					0.5034363269805908,
					0.8000000715255737,
					1
				],
				"metallicFactor":0,
				"roughnessFactor":0.1696428656578064
			}
		},
		{
			"doubleSided":true,
			"name":"Sprinkles",
			"pbrMetallicRoughness":{
				"metallicFactor":0,
				"roughnessFactor":0.5
			}
		}
	],
	"meshes":[
		{
			"name":"\u73af\u4f53.004",
			"primitives":[
				{
					"attributes":{
						"COLOR_0":0,
						"POSITION":1,
						"TEXCOORD_0":2,
						"NORMAL":3
					},
					"indices":4,
					"material":0
				}
			]
		},
		{
			"name":"\u73af\u4f53.001",
			"primitives":[
				{
					"attributes":{
						"COLOR_0":5,
						"POSITION":6,
						"TEXCOORD_0":7,
						"NORMAL":8
					},
					"indices":9,
					"material":1
				}
			]
		},
		{
			"name":"Sphere",
			"primitives":[
				{
					"attributes":{
						"POSITION":10,
						"TEXCOORD_0":11,
						"NORMAL":12
					},
					"indices":13,
					"material":2
				}
			]
		},
		{
			"name":"Sphere.001",
			"primitives":[
				{
					"attributes":{
						"POSITION":14,
						"TEXCOORD_0":15,
						"NORMAL":16
					},
					"indices":13,
					"material":2
				}
			]
		},
		{
			"name":"Sphere.002",
			"primitives":[
				{
					"attributes":{
						"POSITION":17,
						"TEXCOORD_0":18,
						"NORMAL":19
					},
					"indices":13,
					"material":2
				}
			]
		},
		{
			"name":"Sphere.003",
			"primitives":[
				{
					"attributes":{
						"POSITION":20,
						"TEXCOORD_0":21,
						"NORMAL":22
					},
					"indices":13,
					"material":2
				}
			]
		},
		{
			"name":"Sphere.004",
			"primitives":[
				{
					"attributes":{
						"POSITION":23,
						"TEXCOORD_0":24,
						"NORMAL":25
					},
					"indices":13,
					"material":2
				}
			]
		},
		{
			"name":"Sphere.005",
			"primitives":[
				{
					"attributes":{
						"POSITION":26,
						"TEXCOORD_0":27,
						"NORMAL":28
					},
					"indices":13,
					"material":2
				}
			]
		},
		{
			"name":"\u67f1\u4f53.001",
			"primitives":[
				{
					"attributes":{
						"POSITION":29,
						"TEXCOORD_0":30,
						"NORMAL":31
					},
					"indices":32,
					"material":3
				}
			]
		},
		{
			"name":"\u67f1\u4f53.002",
			"primitives":[
				{
					"attributes":{
						"POSITION":33,
						"TEXCOORD_0":34,
						"NORMAL":35
					},
					"indices":36,
					"material":3
				}
			]
		},
		{
			"name":"\u67f1\u4f53.003",
			"primitives":[
				{
					"attributes":{
						"POSITION":37,
						"TEXCOORD_0":38,
						"NORMAL":39
					},
					"indices":36,
					"material":3
				}
			]
		},
		{
			"name":"\u67f1\u4f53.004",
			"primitives":[
				{
					"attributes":{
						"POSITION":40,
						"TEXCOORD_0":41,
						"NORMAL":42
					},
					"indices":43,
					"material":3
				}
			]
		},
		{
			"name":"\u67f1\u4f53.005",
			"primitives":[
				{
					"attributes":{
						"POSITION":44,
						"TEXCOORD_0":45,
						"NORMAL":46
					},
					"indices":43,
					"material":3
				}
			]
		}
	],
	"textures":[
		{
			"sampler":0,
			"source":0
		}
	],
	"images":[
		{
			"bufferView":5,
			"mimeType":"image/png",
			"name":"Donut base"
		}
	],
	"accessors":[
		{
			"bufferView":0,
			"componentType":5123,
			"count":2673,
			"normalized":true,
			"type":"VEC4"
		},
		{
			"bufferView":1,
			"componentType":5126,
			"count":2673,
			"max":[
				0.052232079207897186,
				0.024438073858618736,
				0.04408936947584152
			],
			"min":[
				-0.046051543205976486,
				-0.022148840129375458,
				-0.055802538990974426
			],
			"type":"VEC3"
		},
		{
			"bufferView":2,
			"componentType":5126,
			"count":2673,
			"type":"VEC2"
		},
		{
			"bufferView":3,
			"componentType":5126,
			"count":2673,
			"type":"VEC3"
		},
		{
			"bufferView":4,
			"componentType":5123,
			"count":15360,
			"type":"SCALAR"
		},
		{
			"bufferView":6,
			"componentType":5123,
			"count":8644,
			"normalized":true,
			"type":"VEC4"
		},
		{
			"bufferView":7,
			"componentType":5126,
			"count":8644,
			"max":[
				0.05503100901842117,
				0.027461402118206024,
				0.046490054577589035
			],
			"min":[
				-0.04785674810409546,
				-0.009955604560673237,
				-0.058517999947071075
			],
			"type":"VEC3"
		},
		{
			"bufferView":8,
			"componentType":5126,
			"count":8644,
			"type":"VEC2"
		},
		{
			"bufferView":9,
			"componentType":5126,
			"count":8644,
			"type":"VEC3"
		},
		{
			"bufferView":10,
			"componentType":5123,
			"count":51552,
			"type":"SCALAR"
		},
		{
			"bufferView":11,
			"componentType":5126,
			"count":559,
			"max":[
				0.0019279910484328866,
				0.0019279929110780358,
				0.0019279929110780358
			],
			"min":[
				-0.0019279923290014267,
				-0.0019279929110780358,
				-0.0019279916305094957
			],
			"type":"VEC3"
		},
		{
			"bufferView":12,
			"componentType":5126,
			"count":559,
			"type":"VEC2"
		},
		{
			"bufferView":13,
			"componentType":5126,
			"count":559,
			"type":"VEC3"
		},
		{
			"bufferView":14,
			"componentType":5123,
			"count":2880,
			"type":"SCALAR"
		},
		{
			"bufferView":15,
			"componentType":5126,
			"count":559,
			"max":[
				0.0019279910484328866,
				0.0019279929110780358,
				0.0019279929110780358
			],
			"min":[
				-0.0019279923290014267,
				-0.0019279929110780358,
				-0.0019279916305094957
			],
			"type":"VEC3"
		},
		{
			"bufferView":16,
			"componentType":5126,
			"count":559,
			"type":"VEC2"
		},
		{
			"bufferView":17,
			"componentType":5126,
			"count":559,
			"type":"VEC3"
		},
		{
			"bufferView":18,
			"componentType":5126,
			"count":559,
			"max":[
				0.0019279910484328866,
				0.0019279929110780358,
				0.0019279929110780358
			],
			"min":[
				-0.0019279923290014267,
				-0.0019279929110780358,
				-0.0019279916305094957
			],
			"type":"VEC3"
		},
		{
			"bufferView":19,
			"componentType":5126,
			"count":559,
			"type":"VEC2"
		},
		{
			"bufferView":20,
			"componentType":5126,
			"count":559,
			"type":"VEC3"
		},
		{
			"bufferView":21,
			"componentType":5126,
			"count":559,
			"max":[
				0.0019279910484328866,
				0.0019279929110780358,
				0.0019279929110780358
			],
			"min":[
				-0.0019279923290014267,
				-0.0019279929110780358,
				-0.0019279916305094957
			],
			"type":"VEC3"
		},
		{
			"bufferView":22,
			"componentType":5126,
			"count":559,
			"type":"VEC2"
		},
		{
			"bufferView":23,
			"componentType":5126,
			"count":559,
			"type":"VEC3"
		},
		{
			"bufferView":24,
			"componentType":5126,
			"count":559,
			"max":[
				0.0019279910484328866,
				0.0019279929110780358,
				0.0019279929110780358
			],
			"min":[
				-0.0019279923290014267,
				-0.0019279929110780358,
				-0.0019279916305094957
			],
			"type":"VEC3"
		},
		{
			"bufferView":25,
			"componentType":5126,
			"count":559,
			"type":"VEC2"
		},
		{
			"bufferView":26,
			"componentType":5126,
			"count":559,
			"type":"VEC3"
		},
		{
			"bufferView":27,
			"componentType":5126,
			"count":559,
			"max":[
				0.0019279910484328866,
				0.0019279929110780358,
				0.0019279929110780358
			],
			"min":[
				-0.0019279923290014267,
				-0.0019279929110780358,
				-0.0019279916305094957
			],
			"type":"VEC3"
		},
		{
			"bufferView":28,
			"componentType":5126,
			"count":559,
			"type":"VEC2"
		},
		{
			"bufferView":29,
			"componentType":5126,
			"count":559,
			"type":"VEC3"
		},
		{
			"bufferView":30,
			"componentType":5126,
			"count":61,
			"max":[
				0.0009814861696213484,
				0.0005413753679022193,
				0.0049384827725589275
			],
			"min":[
				-0.0006634402670897543,
				-0.001301649957895279,
				-0.0021472396329045296
			],
			"type":"VEC3"
		},
		{
			"bufferView":31,
			"componentType":5126,
			"count":61,
			"type":"VEC2"
		},
		{
			"bufferView":32,
			"componentType":5126,
			"count":61,
			"type":"VEC3"
		},
		{
			"bufferView":33,
			"componentType":5123,
			"count":228,
			"type":"SCALAR"
		},
		{
			"bufferView":34,
			"componentType":5126,
			"count":52,
			"max":[
				0.0006744429701939225,
				0.0006744436104781926,
				0.002691694302484393
			],
			"min":[
				-0.0006744429701939225,
				-0.0006744436104781926,
				-0.002691694302484393
			],
			"type":"VEC3"
		},
		{
			"bufferView":35,
			"componentType":5126,
			"count":52,
			"type":"VEC2"
		},
		{
			"bufferView":36,
			"componentType":5126,
			"count":52,
			"type":"VEC3"
		},
		{
			"bufferView":37,
			"componentType":5123,
			"count":180,
			"type":"SCALAR"
		},
		{
			"bufferView":38,
			"componentType":5126,
			"count":52,
			"max":[
				0.0006530256941914558,
				0.0005943529540672898,
				0.00017462624236941338
			],
			"min":[
				-0.0007457069586962461,
				-0.0009409331250935793,
				-0.00344815943390131
			],
			"type":"VEC3"
		},
		{
			"bufferView":39,
			"componentType":5126,
			"count":52,
			"type":"VEC2"
		},
		{
			"bufferView":40,
			"componentType":5126,
			"count":52,
			"type":"VEC3"
		},
		{
			"bufferView":41,
			"componentType":5126,
			"count":70,
			"max":[
				0.0017577895196154714,
				0.0007073968299664557,
				0.003657385241240263
			],
			"min":[
				-0.0006515549030154943,
				-0.000665467232465744,
				-0.002534163184463978
			],
			"type":"VEC3"
		},
		{
			"bufferView":42,
			"componentType":5126,
			"count":70,
			"type":"VEC2"
		},
		{
			"bufferView":43,
			"componentType":5126,
			"count":70,
			"type":"VEC3"
		},
		{
			"bufferView":44,
			"componentType":5123,
			"count":276,
			"type":"SCALAR"
		},
		{
			"bufferView":45,
			"componentType":5126,
			"count":70,
			"max":[
				-8.159571734722704e-05,
				0.0007191896438598633,
				0.003262458834797144
			],
			"min":[
				-0.0020668236538767815,
				-0.0006677479832433164,
				-0.0026090594474226236
			],
			"type":"VEC3"
		},
		{
			"bufferView":46,
			"componentType":5126,
			"count":70,
			"type":"VEC2"
		},
		{
			"bufferView":47,
			"componentType":5126,
			"count":70,
			"type":"VEC3"
		}
	],
	"bufferViews":[
		{
			"buffer":0,
			"byteLength":21384,
			"byteOffset":0,
			"target":34962
		},
		{
			"buffer":0,
			"byteLength":32076,
			"byteOffset":21384,
			"target":34962
		},
		{
			"buffer":0,
			"byteLength":21384,
			"byteOffset":53460,
			"target":34962
		},
		{
			"buffer":0,
			"byteLength":32076,
			"byteOffset":74844,
			"target":34962
		},
		{
			"buffer":0,
			"byteLength":30720,
			"byteOffset":106920,
			"target":34963
		},
		{
			"buffer":0,
			"byteLength":56859,
			"byteOffset":137640
		},
		{
			"buffer":0,
			"byteLength":69152,
			"byteOffset":194500,
			"target":34962
		},
		{
			"buffer":0,
			"byteLength":103728,
			"byteOffset":263652,
			"target":34962
		},
		{
			"buffer":0,
			"byteLength":69152,
			"byteOffset":367380,
			"target":34962
		},
		{
			"buffer":0,
			"byteLength":103728,
			"byteOffset":436532,
			"target":34962
		},
		{
			"buffer":0,
			"byteLength":103104,
			"byteOffset":540260,
			"target":34963
		},
		{
			"buffer":0,
			"byteLength":6708,
			"byteOffset":643364,
			"target":34962
		},
		{
			"buffer":0,
			"byteLength":4472,
			"byteOffset":650072,
			"target":34962
		},
		{
			"buffer":0,
			"byteLength":6708,
			"byteOffset":654544,
			"target":34962
		},
		{
			"buffer":0,
			"byteLength":5760,
			"byteOffset":661252,
			"target":34963
		},
		{
			"buffer":0,
			"byteLength":6708,
			"byteOffset":667012,
			"target":34962
		},
		{
			"buffer":0,
			"byteLength":4472,
			"byteOffset":673720,
			"target":34962
		},
		{
			"buffer":0,
			"byteLength":6708,
			"byteOffset":678192,
			"target":34962
		},
		{
			"buffer":0,
			"byteLength":6708,
			"byteOffset":684900,
			"target":34962
		},
		{
			"buffer":0,
			"byteLength":4472,
			"byteOffset":691608,
			"target":34962
		},
		{
			"buffer":0,
			"byteLength":6708,
			"byteOffset":696080,
			"target":34962
		},
		{
			"buffer":0,
			"byteLength":6708,
			"byteOffset":702788,
			"target":34962
		},
		{
			"buffer":0,
			"byteLength":4472,
			"byteOffset":709496,
			"target":34962
		},
		{
			"buffer":0,
			"byteLength":6708,
			"byteOffset":713968,
			"target":34962
		},
		{
			"buffer":0,
			"byteLength":6708,
			"byteOffset":720676,
			"target":34962
		},
		{
			"buffer":0,
			"byteLength":4472,
			"byteOffset":727384,
			"target":34962
		},
		{
			"buffer":0,
			"byteLength":6708,
			"byteOffset":731856,
			"target":34962
		},
		{
			"buffer":0,
			"byteLength":6708,
			"byteOffset":738564,
			"target":34962
		},
		{
			"buffer":0,
			"byteLength":4472,
			"byteOffset":745272,
			"target":34962
		},
		{
			"buffer":0,
			"byteLength":6708,
			"byteOffset":749744,
			"target":34962
		},
		{
			"buffer":0,
			"byteLength":732,
			"byteOffset":756452,
			"target":34962
		},
		{
			"buffer":0,
			"byteLength":488,
			"byteOffset":757184,
			"target":34962
		},
		{
			"buffer":0,
			"byteLength":732,
			"byteOffset":757672,
			"target":34962
		},
		{
			"buffer":0,
			"byteLength":456,
			"byteOffset":758404,
			"target":34963
		},
		{
			"buffer":0,
			"byteLength":624,
			"byteOffset":758860,
			"target":34962
		},
		{
			"buffer":0,
			"byteLength":416,
			"byteOffset":759484,
			"target":34962
		},
		{
			"buffer":0,
			"byteLength":624,
			"byteOffset":759900,
			"target":34962
		},
		{
			"buffer":0,
			"byteLength":360,
			"byteOffset":760524,
			"target":34963
		},
		{
			"buffer":0,
			"byteLength":624,
			"byteOffset":760884,
			"target":34962
		},
		{
			"buffer":0,
			"byteLength":416,
			"byteOffset":761508,
			"target":34962
		},
		{
			"buffer":0,
			"byteLength":624,
			"byteOffset":761924,
			"target":34962
		},
		{
			"buffer":0,
			"byteLength":840,
			"byteOffset":762548,
			"target":34962
		},
		{
			"buffer":0,
			"byteLength":560,
			"byteOffset":763388,
			"target":34962
		},
		{
			"buffer":0,
			"byteLength":840,
			"byteOffset":763948,
			"target":34962
		},
		{
			"buffer":0,
			"byteLength":552,
			"byteOffset":764788,
			"target":34963
		},
		{
			"buffer":0,
			"byteLength":840,
			"byteOffset":765340,
			"target":34962
		},
		{
			"buffer":0,
			"byteLength":560,
			"byteOffset":766180,
			"target":34962
		},
		{
			"buffer":0,
			"byteLength":840,
			"byteOffset":766740,
			"target":34962
		}
	],
	"samplers":[
		{
			"magFilter":9729,
			"minFilter":9987
		}
	],
	"buffers":[
		{
			"byteLength":767580,
			"uri":"data:application/octet-stream;base64,"
		}
	]
}
